<svg width="22" height="20" viewBox="0 0 22 20" fill="none" xmlns="http://www.w3.org/2000/svg">
<path d="M11.0025 4.74801C7.88098 4.74801 5.36319 6.97904 5.36319 9.745C5.36319 12.511 7.88098 14.742 11.0025 14.742C14.1239 14.742 16.6417 12.511 16.6417 9.745C16.6417 6.97904 14.1239 4.74801 11.0025 4.74801ZM11.0025 12.9937C8.98528 12.9937 7.3362 11.5368 7.3362 9.745C7.3362 7.95322 8.98037 6.4963 11.0025 6.4963C13.0245 6.4963 14.6687 7.95322 14.6687 9.745C14.6687 11.5368 13.0196 12.9937 11.0025 12.9937ZM18.1877 4.54361C18.1877 5.19161 17.5988 5.70914 16.8724 5.70914C16.1411 5.70914 15.5571 5.18726 15.5571 4.54361C15.5571 3.89996 16.146 3.37808 16.8724 3.37808C17.5988 3.37808 18.1877 3.89996 18.1877 4.54361ZM21.9227 5.72653C21.8393 4.16525 21.4368 2.78227 20.146 1.64283C18.8601 0.503395 17.2994 0.146778 15.5374 0.0684966C13.7215 -0.0228322 8.27853 -0.0228322 6.46258 0.0684966C4.70552 0.142429 3.14479 0.499047 1.85399 1.63848C0.56319 2.77792 0.165644 4.1609 0.0773006 5.72218C-0.0257669 7.33131 -0.0257669 12.1543 0.0773006 13.7635C0.160736 15.3248 0.56319 16.7077 1.85399 17.8472C3.14479 18.9866 4.70061 19.3432 6.46258 19.4215C8.27853 19.5128 13.7215 19.5128 15.5374 19.4215C17.2994 19.3476 18.8601 18.991 20.146 17.8472C21.4319 16.7077 21.8344 15.3248 21.9227 13.7635C22.0258 12.1543 22.0258 7.33566 21.9227 5.72653ZM19.5767 15.49C19.1939 16.3424 18.4528 16.9991 17.4859 17.3427C16.038 17.8515 12.6025 17.7341 11.0025 17.7341C9.40245 17.7341 5.96196 17.8472 4.51902 17.3427C3.55705 17.0035 2.81595 16.3468 2.42822 15.49C1.85399 14.2071 1.9865 11.1628 1.9865 9.745C1.9865 8.32723 1.8589 5.27859 2.42822 3.99998C2.81104 3.14758 3.55215 2.49088 4.51902 2.14731C5.96687 1.63848 9.40245 1.7559 11.0025 1.7559C12.6025 1.7559 16.0429 1.64283 17.4859 2.14731C18.4479 2.48654 19.189 3.14323 19.5767 3.99998C20.1509 5.28294 20.0184 8.32723 20.0184 9.745C20.0184 11.1628 20.1509 14.2114 19.5767 15.49Z" fill="white"/>
</svg>
